<svg xmlns="http://www.w3.org/2000/svg" width="483" height="501" viewBox="0 0 483 501">
<g fill="#f04a1d">
<path d="M 232,427 L 231,428 L 230,428 L 228,430 L 227,430 L 225,432 L 224,432 L 222,434 L 221,434 L 219,436 L 218,436 L 217,437 L 216,437 L 214,439 L 213,439 L 212,440 L 211,440 L 210,441 L 208,441 L 206,443 L 204,443 L 203,444 L 202,444 L 201,445 L 200,445 L 199,444 L 200,445 L 199,446 L 197,446 L 197,448 L 201,452 L 201,453 L 202,453 L 203,454 L 203,455 L 207,459 L 207,460 L 209,462 L 209,463 L 208,464 L 209,463 L 210,464 L 210,466 L 211,466 L 214,469 L 215,468 L 270,468 L 271,469 L 272,469 L 272,467 L 271,466 L 271,465 L 270,465 L 269,464 L 269,463 L 268,463 L 267,462 L 267,461 L 264,458 L 263,458 L 262,457 L 262,456 L 260,454 L 259,454 L 258,453 L 258,452 L 237,431 L 237,430 L 236,430 L 233,427 Z" />
<path d="M 258,396 L 257,397 L 254,397 L 253,398 L 250,398 L 249,399 L 241,399 L 240,400 L 216,400 L 219,403 L 219,404 L 220,404 L 221,405 L 221,406 L 230,415 L 231,415 L 232,416 L 232,417 L 235,420 L 236,420 L 237,421 L 237,422 L 243,428 L 244,428 L 245,429 L 245,430 L 257,442 L 257,443 L 258,444 L 259,444 L 263,448 L 263,449 L 264,449 L 272,457 L 273,457 L 274,456 L 274,455 L 277,452 L 277,451 L 280,448 L 280,447 L 281,446 L 282,446 L 284,444 L 284,443 L 285,442 L 286,442 L 289,439 L 290,439 L 291,438 L 293,438 L 294,437 L 295,437 L 296,436 L 299,436 L 300,435 L 300,434 L 299,434 L 297,432 L 297,431 L 296,432 L 294,430 L 293,430 L 290,427 L 289,427 L 288,426 L 288,424 L 287,425 L 285,423 L 284,423 L 276,415 L 276,414 L 271,409 L 271,408 L 268,405 L 268,404 L 266,402 L 266,401 L 264,399 L 264,398 L 262,396 Z" />
<path d="M 364,341 L 363,342 L 360,342 L 359,343 L 356,343 L 355,344 L 354,344 L 353,345 L 350,345 L 348,347 L 346,347 L 345,348 L 343,348 L 341,350 L 340,350 L 338,352 L 337,352 L 335,354 L 334,354 L 332,356 L 331,356 L 329,358 L 328,358 L 327,359 L 326,359 L 322,363 L 321,363 L 319,365 L 318,365 L 318,366 L 317,367 L 316,367 L 314,369 L 313,369 L 312,370 L 311,370 L 311,371 L 310,372 L 309,372 L 306,375 L 305,375 L 304,376 L 303,375 L 304,376 L 302,378 L 301,377 L 301,378 L 299,380 L 298,380 L 297,381 L 296,381 L 294,383 L 293,383 L 291,385 L 290,385 L 289,386 L 288,386 L 287,387 L 286,387 L 285,388 L 284,388 L 283,389 L 282,389 L 281,388 L 281,389 L 280,390 L 279,390 L 278,391 L 276,391 L 275,392 L 272,392 L 271,393 L 270,393 L 270,396 L 271,397 L 270,398 L 271,398 L 274,401 L 274,402 L 276,404 L 276,405 L 277,405 L 278,406 L 278,407 L 291,420 L 292,420 L 293,421 L 292,422 L 293,421 L 296,424 L 297,424 L 300,427 L 301,427 L 302,428 L 303,428 L 304,429 L 305,429 L 307,431 L 309,431 L 310,432 L 309,433 L 310,432 L 311,432 L 312,433 L 313,433 L 314,434 L 315,434 L 316,435 L 318,435 L 319,436 L 322,436 L 323,437 L 327,437 L 328,438 L 332,438 L 333,439 L 332,440 L 331,440 L 332,440 L 333,439 L 349,439 L 350,438 L 354,438 L 355,437 L 359,437 L 360,436 L 363,436 L 364,435 L 365,435 L 366,434 L 368,434 L 369,433 L 370,433 L 371,432 L 372,432 L 373,431 L 375,431 L 377,429 L 378,429 L 379,428 L 380,428 L 382,426 L 383,426 L 385,424 L 386,424 L 386,423 L 387,422 L 388,422 L 389,421 L 390,422 L 389,421 L 391,419 L 392,420 L 391,419 L 394,416 L 395,416 L 395,415 L 400,410 L 400,409 L 403,406 L 403,405 L 404,404 L 404,403 L 405,402 L 405,401 L 406,400 L 406,399 L 407,398 L 407,397 L 408,396 L 408,394 L 409,393 L 409,391 L 410,390 L 410,386 L 411,385 L 411,372 L 410,371 L 410,368 L 409,367 L 409,364 L 408,363 L 408,362 L 406,360 L 406,358 L 403,355 L 403,354 L 397,348 L 396,348 L 395,347 L 394,347 L 392,345 L 390,345 L 389,344 L 388,344 L 387,343 L 385,343 L 384,342 L 380,342 L 379,341 Z" />
<path d="M 111,315 L 110,316 L 107,316 L 106,317 L 103,317 L 102,318 L 101,318 L 100,319 L 99,319 L 98,320 L 97,320 L 96,321 L 95,321 L 94,322 L 93,322 L 89,326 L 88,326 L 86,328 L 86,329 L 85,330 L 84,330 L 84,331 L 82,333 L 82,334 L 79,337 L 79,338 L 78,339 L 78,340 L 77,341 L 77,343 L 76,344 L 76,346 L 75,347 L 75,351 L 74,352 L 74,360 L 73,361 L 74,362 L 74,370 L 75,371 L 75,376 L 76,377 L 76,380 L 77,381 L 77,384 L 78,385 L 78,386 L 79,387 L 79,390 L 80,390 L 81,391 L 81,393 L 82,394 L 82,395 L 84,397 L 84,399 L 86,401 L 86,402 L 88,404 L 88,405 L 90,407 L 90,408 L 89,409 L 90,408 L 95,413 L 95,414 L 104,423 L 105,423 L 109,427 L 110,427 L 112,429 L 113,429 L 115,431 L 116,431 L 117,432 L 118,432 L 119,433 L 120,433 L 122,435 L 123,435 L 124,436 L 125,436 L 126,437 L 127,437 L 128,438 L 130,438 L 131,439 L 133,439 L 134,440 L 135,440 L 136,441 L 139,441 L 140,442 L 143,442 L 144,443 L 146,443 L 147,444 L 154,444 L 155,445 L 173,445 L 174,444 L 180,444 L 181,443 L 185,443 L 186,442 L 190,442 L 191,441 L 192,441 L 193,442 L 194,442 L 193,442 L 192,441 L 193,440 L 195,440 L 196,439 L 198,439 L 199,438 L 201,438 L 202,437 L 203,437 L 204,436 L 205,436 L 206,435 L 207,435 L 208,434 L 209,434 L 210,433 L 211,433 L 212,432 L 213,432 L 214,431 L 215,431 L 217,429 L 218,429 L 219,428 L 220,428 L 221,427 L 222,427 L 227,422 L 227,421 L 208,402 L 209,401 L 208,402 L 206,400 L 207,399 L 206,400 L 199,393 L 199,392 L 198,392 L 194,388 L 194,387 L 189,382 L 189,381 L 188,381 L 185,378 L 186,377 L 185,378 L 184,378 L 180,374 L 179,374 L 178,373 L 178,372 L 177,372 L 176,371 L 175,371 L 174,370 L 174,369 L 173,369 L 172,368 L 172,367 L 171,367 L 166,362 L 166,361 L 164,359 L 165,358 L 164,359 L 162,357 L 162,356 L 159,353 L 159,352 L 158,351 L 158,350 L 156,348 L 156,347 L 155,346 L 155,345 L 154,344 L 154,343 L 151,340 L 151,338 L 150,337 L 150,336 L 149,335 L 149,334 L 148,333 L 148,332 L 147,331 L 147,329 L 146,328 L 146,325 L 145,324 L 145,323 L 144,322 L 144,321 L 143,320 L 141,320 L 140,319 L 138,319 L 137,318 L 136,318 L 135,317 L 132,317 L 131,316 L 127,316 L 126,315 Z" />
<path d="M 398,283 L 397,284 L 396,284 L 395,285 L 394,285 L 393,286 L 391,286 L 389,288 L 388,288 L 387,289 L 386,289 L 385,290 L 383,290 L 381,292 L 380,292 L 379,293 L 377,293 L 376,294 L 375,294 L 374,295 L 373,295 L 371,297 L 369,297 L 368,298 L 365,298 L 365,299 L 364,300 L 363,300 L 362,301 L 361,301 L 360,302 L 359,302 L 358,303 L 357,303 L 356,304 L 355,304 L 354,305 L 352,305 L 350,307 L 348,307 L 348,308 L 346,310 L 345,310 L 345,311 L 344,312 L 344,313 L 342,315 L 342,319 L 341,320 L 341,323 L 342,324 L 342,328 L 344,330 L 344,331 L 345,332 L 346,332 L 347,333 L 348,333 L 349,334 L 351,334 L 352,335 L 372,335 L 373,334 L 379,334 L 380,335 L 381,334 L 386,334 L 387,333 L 388,333 L 389,332 L 391,332 L 391,331 L 392,330 L 393,330 L 393,329 L 394,328 L 395,328 L 396,327 L 396,326 L 397,325 L 397,323 L 398,322 L 398,320 L 399,319 L 399,317 L 400,316 L 400,286 L 399,285 L 400,284 L 399,283 Z" />
<path d="M 363,264 L 362,265 L 360,265 L 359,266 L 358,266 L 357,267 L 356,267 L 354,269 L 353,269 L 350,272 L 350,273 L 347,276 L 347,278 L 346,279 L 346,280 L 345,281 L 345,295 L 346,296 L 346,297 L 347,298 L 347,299 L 348,300 L 349,300 L 350,299 L 351,299 L 352,298 L 353,298 L 354,297 L 355,297 L 356,296 L 357,296 L 358,295 L 359,295 L 360,294 L 361,294 L 362,293 L 364,293 L 366,291 L 367,291 L 368,290 L 370,290 L 372,288 L 373,288 L 374,287 L 375,287 L 376,286 L 377,286 L 378,285 L 380,285 L 382,283 L 383,283 L 384,282 L 386,282 L 388,280 L 390,280 L 390,277 L 389,276 L 389,275 L 387,273 L 387,272 L 384,269 L 383,269 L 380,266 L 378,266 L 377,265 L 374,265 L 373,264 Z" />
<path d="M 109,225 L 105,229 L 104,229 L 104,230 L 102,232 L 101,232 L 98,235 L 98,236 L 96,238 L 96,239 L 95,240 L 95,241 L 94,242 L 94,243 L 93,244 L 93,245 L 92,246 L 92,248 L 91,249 L 91,251 L 90,252 L 90,256 L 89,257 L 89,261 L 88,262 L 88,296 L 89,297 L 89,298 L 90,299 L 90,302 L 91,302 L 92,303 L 92,305 L 94,305 L 95,306 L 95,307 L 97,307 L 98,308 L 99,308 L 100,309 L 105,309 L 106,310 L 107,310 L 108,309 L 114,309 L 115,308 L 119,308 L 120,307 L 121,307 L 122,306 L 123,306 L 124,305 L 125,305 L 126,304 L 127,305 L 127,304 L 129,302 L 130,302 L 133,299 L 134,299 L 134,298 L 137,295 L 137,294 L 139,292 L 139,291 L 140,290 L 140,288 L 141,287 L 141,285 L 142,284 L 142,282 L 143,281 L 143,253 L 138,253 L 137,254 L 136,254 L 134,256 L 133,256 L 133,257 L 131,259 L 130,258 L 130,253 L 129,252 L 129,250 L 128,249 L 128,247 L 129,246 L 127,244 L 127,243 L 126,242 L 126,240 L 125,239 L 125,238 L 124,237 L 124,236 L 123,235 L 123,234 L 119,230 L 118,230 L 117,229 L 117,228 L 116,228 L 113,225 Z" />
<path d="M 292,212 L 292,213 L 290,215 L 290,216 L 289,217 L 291,219 L 291,220 L 293,222 L 293,223 L 295,225 L 295,226 L 297,228 L 297,229 L 298,230 L 298,232 L 297,233 L 297,234 L 296,235 L 295,235 L 293,237 L 292,237 L 289,240 L 288,240 L 285,243 L 284,243 L 282,245 L 276,245 L 275,244 L 274,244 L 274,247 L 273,248 L 273,266 L 274,267 L 274,270 L 275,271 L 275,273 L 276,274 L 276,275 L 278,277 L 278,278 L 279,279 L 280,279 L 282,281 L 283,281 L 284,282 L 285,282 L 286,283 L 292,283 L 293,282 L 294,282 L 295,281 L 296,281 L 297,280 L 298,280 L 299,279 L 299,278 L 301,276 L 301,275 L 302,274 L 302,272 L 304,270 L 313,270 L 314,271 L 314,273 L 315,274 L 315,275 L 316,276 L 316,277 L 317,278 L 317,280 L 319,282 L 319,284 L 321,286 L 321,287 L 322,288 L 322,289 L 323,290 L 323,291 L 324,292 L 324,293 L 325,294 L 325,295 L 326,296 L 326,298 L 325,299 L 325,300 L 321,304 L 320,303 L 321,304 L 319,306 L 318,306 L 314,310 L 313,310 L 311,312 L 310,312 L 309,313 L 308,313 L 306,315 L 305,315 L 304,316 L 303,316 L 302,317 L 301,317 L 300,318 L 298,318 L 297,319 L 294,319 L 292,321 L 288,321 L 287,322 L 284,322 L 283,323 L 265,323 L 264,322 L 262,322 L 261,321 L 258,321 L 257,320 L 255,320 L 253,318 L 252,319 L 251,318 L 250,318 L 249,317 L 248,317 L 247,316 L 246,316 L 244,314 L 243,314 L 240,311 L 239,311 L 232,304 L 233,303 L 232,304 L 227,299 L 227,298 L 224,295 L 224,294 L 222,292 L 222,291 L 221,290 L 221,289 L 220,288 L 220,287 L 219,286 L 219,285 L 217,283 L 217,281 L 216,280 L 216,279 L 215,278 L 215,276 L 214,275 L 214,274 L 213,273 L 213,270 L 212,269 L 212,268 L 211,267 L 211,264 L 210,263 L 210,260 L 209,259 L 209,257 L 208,256 L 208,251 L 207,250 L 207,246 L 206,245 L 206,244 L 205,245 L 199,245 L 198,244 L 197,244 L 196,243 L 196,242 L 195,242 L 193,240 L 192,240 L 189,237 L 188,237 L 184,233 L 184,231 L 183,230 L 183,229 L 184,228 L 184,227 L 186,225 L 186,224 L 190,220 L 190,219 L 191,218 L 191,217 L 192,216 L 191,215 L 191,214 L 189,214 L 187,216 L 186,216 L 181,221 L 180,221 L 171,230 L 171,231 L 170,232 L 169,232 L 169,233 L 166,236 L 166,237 L 164,239 L 164,240 L 162,242 L 162,243 L 160,245 L 160,246 L 159,247 L 159,248 L 158,249 L 158,250 L 157,251 L 157,252 L 156,253 L 156,254 L 155,255 L 155,257 L 153,259 L 153,262 L 152,263 L 152,264 L 151,265 L 151,269 L 150,270 L 150,272 L 149,273 L 149,280 L 148,281 L 148,308 L 149,309 L 149,313 L 150,314 L 150,318 L 151,319 L 151,321 L 152,322 L 152,324 L 153,325 L 153,328 L 155,330 L 155,332 L 156,333 L 156,334 L 157,335 L 157,336 L 158,337 L 158,338 L 159,339 L 159,340 L 160,341 L 160,342 L 162,344 L 162,346 L 163,346 L 164,347 L 164,348 L 166,350 L 166,351 L 168,353 L 168,354 L 170,356 L 169,357 L 170,356 L 175,361 L 175,362 L 176,362 L 182,368 L 183,368 L 188,373 L 189,373 L 190,374 L 191,374 L 193,376 L 194,376 L 196,378 L 197,378 L 198,379 L 199,379 L 200,380 L 201,380 L 202,381 L 203,381 L 204,382 L 206,382 L 207,383 L 209,383 L 210,384 L 211,384 L 212,385 L 212,386 L 213,385 L 215,385 L 216,386 L 217,386 L 218,387 L 223,387 L 224,388 L 226,388 L 227,389 L 231,389 L 232,390 L 247,390 L 248,389 L 253,389 L 254,390 L 255,389 L 258,389 L 259,388 L 262,388 L 263,387 L 267,387 L 268,386 L 270,386 L 271,385 L 273,385 L 274,384 L 278,384 L 280,382 L 281,382 L 282,381 L 284,381 L 286,379 L 287,379 L 288,378 L 289,378 L 291,376 L 293,376 L 296,373 L 297,373 L 298,372 L 299,372 L 303,368 L 305,368 L 305,366 L 306,365 L 307,365 L 312,360 L 313,360 L 313,359 L 315,357 L 315,356 L 320,351 L 321,351 L 320,350 L 321,349 L 321,348 L 323,346 L 323,345 L 324,344 L 324,343 L 325,342 L 326,343 L 325,342 L 326,341 L 326,340 L 327,339 L 327,338 L 328,337 L 328,336 L 329,335 L 329,334 L 330,333 L 330,332 L 332,330 L 331,329 L 332,328 L 332,326 L 333,325 L 333,323 L 334,322 L 334,320 L 335,319 L 335,315 L 336,314 L 336,311 L 337,310 L 337,302 L 338,301 L 338,285 L 337,284 L 337,277 L 336,276 L 336,272 L 335,271 L 335,268 L 334,267 L 334,264 L 333,263 L 333,261 L 332,260 L 332,258 L 331,257 L 331,256 L 330,255 L 330,254 L 329,253 L 329,252 L 328,251 L 328,249 L 326,247 L 326,246 L 324,244 L 324,243 L 323,242 L 323,241 L 324,240 L 323,241 L 321,239 L 321,237 L 320,237 L 318,235 L 318,234 L 311,227 L 311,226 L 310,226 L 303,219 L 302,219 L 300,217 L 300,216 L 298,216 L 295,213 L 294,213 L 293,212 Z" />
<path d="M 214,118 L 213,119 L 210,119 L 209,120 L 208,120 L 207,121 L 205,121 L 204,122 L 203,122 L 201,124 L 200,124 L 199,123 L 200,124 L 198,126 L 197,126 L 196,125 L 197,126 L 190,133 L 190,138 L 191,139 L 191,143 L 192,144 L 192,156 L 193,157 L 192,158 L 192,162 L 193,163 L 193,170 L 194,171 L 194,175 L 195,176 L 195,178 L 196,179 L 196,181 L 197,182 L 197,183 L 198,184 L 198,185 L 199,186 L 199,188 L 200,189 L 200,190 L 201,191 L 201,199 L 200,200 L 200,202 L 199,203 L 199,205 L 198,206 L 198,207 L 196,209 L 196,211 L 197,212 L 197,213 L 198,213 L 199,214 L 199,215 L 200,215 L 203,218 L 203,219 L 202,220 L 200,218 L 199,218 L 197,220 L 196,220 L 197,221 L 194,224 L 194,225 L 192,227 L 192,228 L 191,229 L 191,231 L 192,231 L 197,236 L 198,236 L 200,238 L 202,238 L 204,236 L 206,236 L 205,235 L 209,231 L 211,233 L 211,236 L 212,237 L 212,241 L 213,242 L 213,245 L 212,246 L 213,245 L 214,246 L 214,252 L 215,253 L 215,255 L 216,256 L 216,260 L 217,261 L 217,264 L 218,265 L 218,267 L 219,268 L 219,270 L 220,271 L 220,272 L 221,273 L 221,275 L 222,276 L 222,277 L 223,278 L 223,280 L 224,281 L 224,282 L 225,283 L 225,284 L 226,285 L 226,286 L 227,287 L 227,288 L 229,290 L 229,291 L 232,294 L 232,295 L 238,301 L 238,302 L 237,303 L 238,302 L 239,302 L 244,307 L 245,307 L 247,309 L 248,309 L 249,310 L 250,310 L 252,312 L 254,312 L 255,313 L 257,313 L 258,314 L 260,314 L 261,315 L 266,315 L 267,316 L 282,316 L 283,315 L 286,315 L 287,316 L 288,315 L 289,315 L 290,314 L 293,314 L 294,313 L 295,313 L 296,312 L 298,312 L 300,310 L 301,310 L 302,309 L 303,309 L 304,308 L 305,308 L 307,306 L 308,306 L 310,304 L 311,305 L 312,305 L 313,304 L 312,303 L 314,301 L 315,301 L 319,297 L 319,296 L 318,295 L 318,294 L 316,292 L 316,291 L 315,290 L 315,289 L 314,288 L 314,287 L 313,286 L 313,285 L 312,284 L 313,283 L 312,284 L 311,283 L 311,281 L 310,280 L 310,279 L 309,278 L 309,277 L 308,277 L 306,279 L 306,280 L 302,284 L 301,284 L 301,285 L 299,287 L 298,287 L 297,288 L 296,288 L 295,289 L 293,289 L 292,290 L 286,290 L 285,289 L 283,289 L 282,288 L 281,288 L 280,287 L 279,287 L 277,285 L 277,284 L 275,284 L 274,283 L 274,282 L 272,280 L 272,279 L 271,278 L 271,277 L 269,275 L 269,273 L 268,272 L 268,270 L 267,269 L 267,264 L 266,263 L 266,250 L 267,249 L 267,243 L 268,242 L 268,240 L 269,239 L 269,235 L 271,233 L 270,232 L 272,230 L 273,231 L 273,232 L 276,235 L 276,236 L 277,237 L 277,238 L 278,238 L 279,239 L 280,238 L 281,238 L 285,234 L 286,234 L 287,233 L 288,233 L 288,232 L 289,231 L 290,231 L 290,229 L 288,227 L 288,226 L 286,224 L 286,223 L 283,220 L 283,219 L 281,219 L 280,220 L 279,219 L 279,218 L 284,213 L 285,213 L 285,208 L 284,207 L 284,205 L 283,204 L 283,203 L 282,202 L 282,199 L 281,198 L 281,193 L 282,192 L 282,189 L 283,188 L 283,187 L 284,186 L 284,185 L 285,184 L 285,182 L 286,181 L 286,179 L 287,178 L 287,177 L 288,176 L 288,173 L 289,172 L 289,164 L 290,163 L 290,147 L 291,146 L 291,140 L 292,139 L 292,136 L 293,135 L 293,134 L 289,130 L 289,129 L 288,128 L 287,128 L 283,124 L 282,124 L 281,123 L 280,123 L 279,122 L 278,122 L 277,121 L 276,121 L 275,120 L 273,120 L 272,119 L 267,119 L 266,118 L 263,118 L 262,119 L 257,119 L 256,120 L 254,120 L 253,121 L 251,121 L 250,122 L 249,122 L 248,123 L 247,123 L 245,125 L 243,125 L 242,126 L 240,126 L 239,125 L 238,125 L 237,124 L 236,124 L 235,123 L 234,123 L 233,122 L 232,122 L 231,121 L 232,120 L 231,120 L 230,121 L 229,121 L 228,120 L 226,120 L 225,119 L 223,119 L 222,118 L 221,118 L 220,119 L 215,119 Z" />
<path d="M 325,111 L 324,112 L 322,112 L 321,113 L 319,113 L 318,114 L 317,114 L 316,115 L 315,115 L 314,116 L 313,116 L 311,118 L 310,118 L 305,123 L 305,124 L 303,126 L 303,127 L 302,128 L 302,129 L 301,130 L 301,132 L 300,133 L 300,135 L 299,136 L 299,138 L 298,139 L 298,146 L 297,147 L 297,167 L 296,168 L 295,168 L 296,169 L 296,173 L 295,174 L 295,176 L 294,177 L 294,180 L 293,181 L 293,182 L 292,183 L 292,185 L 291,186 L 291,187 L 290,188 L 290,190 L 289,191 L 289,192 L 288,193 L 288,197 L 289,198 L 289,199 L 290,200 L 290,203 L 291,203 L 294,206 L 295,206 L 297,208 L 298,208 L 299,209 L 300,209 L 302,211 L 303,211 L 304,212 L 305,212 L 308,215 L 309,215 L 313,219 L 314,219 L 325,230 L 325,231 L 326,231 L 326,230 L 327,229 L 326,228 L 327,227 L 327,226 L 328,225 L 328,223 L 329,222 L 329,221 L 330,220 L 330,218 L 332,216 L 332,215 L 333,214 L 333,213 L 337,209 L 338,209 L 337,208 L 347,198 L 348,198 L 351,195 L 352,195 L 353,194 L 354,194 L 354,193 L 355,192 L 354,191 L 354,171 L 355,170 L 355,169 L 356,168 L 355,167 L 356,166 L 356,163 L 357,162 L 357,161 L 358,160 L 358,159 L 359,158 L 359,157 L 360,156 L 360,154 L 362,152 L 362,151 L 365,148 L 365,147 L 367,145 L 367,144 L 368,143 L 369,143 L 369,142 L 372,139 L 373,139 L 373,138 L 374,137 L 375,137 L 375,136 L 376,135 L 377,135 L 377,133 L 373,129 L 373,128 L 372,128 L 367,123 L 366,123 L 363,120 L 362,120 L 361,119 L 360,119 L 359,118 L 358,118 L 357,117 L 356,117 L 355,116 L 354,116 L 353,115 L 351,115 L 350,114 L 348,114 L 346,112 L 345,113 L 344,112 L 338,112 L 337,111 L 328,111 L 327,112 L 326,112 Z" />
<path d="M 144,111 L 143,112 L 138,112 L 137,113 L 135,113 L 134,114 L 132,114 L 131,115 L 130,115 L 129,116 L 127,116 L 126,117 L 125,117 L 124,118 L 123,118 L 122,117 L 123,118 L 121,120 L 119,120 L 119,121 L 118,122 L 117,122 L 114,125 L 113,125 L 105,133 L 105,134 L 116,145 L 116,146 L 119,149 L 119,150 L 121,152 L 121,153 L 122,154 L 122,155 L 123,156 L 123,157 L 124,158 L 124,159 L 125,160 L 125,162 L 126,163 L 126,165 L 127,166 L 127,168 L 128,169 L 128,173 L 129,174 L 129,194 L 130,195 L 131,195 L 133,197 L 133,198 L 135,198 L 143,206 L 144,206 L 145,207 L 145,208 L 144,209 L 145,208 L 147,210 L 147,212 L 148,212 L 150,214 L 150,216 L 151,217 L 151,218 L 153,220 L 153,221 L 154,222 L 154,223 L 155,224 L 155,227 L 156,228 L 156,229 L 157,230 L 156,231 L 157,230 L 158,230 L 159,231 L 158,230 L 158,229 L 159,228 L 160,228 L 163,225 L 163,224 L 166,221 L 167,221 L 170,218 L 171,218 L 171,217 L 173,215 L 174,215 L 176,213 L 177,213 L 179,211 L 180,211 L 182,209 L 183,209 L 184,208 L 185,208 L 187,206 L 188,206 L 193,201 L 193,200 L 194,199 L 194,192 L 193,191 L 193,189 L 192,188 L 192,187 L 191,186 L 192,185 L 190,183 L 190,182 L 189,181 L 189,179 L 188,178 L 188,176 L 187,175 L 187,172 L 186,171 L 186,163 L 185,162 L 185,144 L 184,143 L 184,139 L 183,138 L 183,135 L 182,134 L 182,132 L 181,131 L 181,129 L 179,127 L 179,126 L 178,125 L 178,124 L 176,122 L 176,121 L 175,120 L 174,120 L 171,117 L 170,117 L 168,115 L 167,115 L 166,114 L 164,114 L 163,113 L 162,113 L 161,112 L 157,112 L 156,111 Z" />
<path d="M 232,80 L 231,81 L 227,81 L 226,82 L 222,82 L 221,83 L 218,83 L 217,84 L 215,84 L 214,85 L 212,85 L 211,86 L 210,86 L 209,87 L 207,87 L 206,88 L 205,88 L 203,90 L 202,90 L 201,91 L 200,91 L 198,93 L 197,93 L 195,95 L 194,95 L 192,97 L 191,97 L 185,103 L 185,104 L 181,108 L 181,109 L 178,112 L 178,113 L 179,114 L 179,115 L 182,118 L 182,119 L 183,120 L 183,121 L 185,123 L 185,124 L 186,125 L 185,126 L 186,125 L 187,126 L 188,126 L 194,120 L 195,120 L 197,118 L 198,118 L 199,117 L 200,117 L 202,115 L 204,115 L 205,114 L 206,114 L 207,113 L 209,113 L 210,112 L 214,112 L 215,111 L 220,111 L 221,112 L 226,112 L 227,113 L 230,113 L 231,114 L 232,114 L 233,115 L 235,115 L 237,117 L 239,117 L 240,118 L 243,118 L 244,117 L 245,117 L 246,116 L 247,116 L 248,115 L 250,115 L 251,114 L 252,114 L 253,113 L 256,113 L 257,112 L 260,112 L 261,111 L 269,111 L 270,112 L 272,112 L 273,113 L 276,113 L 277,114 L 278,114 L 279,115 L 280,115 L 281,116 L 282,116 L 284,118 L 285,118 L 288,121 L 289,121 L 292,124 L 293,124 L 294,125 L 294,126 L 296,126 L 296,125 L 298,123 L 298,122 L 300,120 L 300,119 L 302,117 L 302,116 L 303,115 L 304,115 L 304,111 L 302,109 L 302,108 L 298,104 L 298,103 L 295,100 L 294,100 L 293,99 L 293,98 L 292,98 L 289,95 L 288,95 L 286,93 L 285,93 L 283,91 L 282,91 L 281,90 L 280,90 L 279,89 L 278,89 L 277,88 L 276,88 L 275,87 L 274,87 L 273,86 L 272,86 L 271,85 L 269,85 L 268,84 L 266,84 L 265,83 L 263,83 L 262,82 L 259,82 L 258,81 L 257,82 L 256,81 L 252,81 L 251,80 Z" />
<path d="M 239,44 L 237,46 L 235,46 L 235,47 L 227,55 L 227,56 L 225,58 L 224,57 L 225,58 L 223,60 L 223,61 L 221,63 L 221,64 L 220,65 L 220,66 L 219,67 L 218,67 L 219,68 L 219,69 L 218,70 L 218,76 L 220,76 L 221,75 L 224,75 L 225,74 L 231,74 L 232,73 L 252,73 L 253,74 L 258,74 L 259,75 L 262,75 L 263,76 L 265,76 L 265,70 L 264,69 L 264,67 L 263,66 L 263,65 L 262,64 L 262,63 L 260,61 L 260,60 L 254,54 L 254,53 L 252,51 L 251,51 L 250,50 L 250,48 L 248,48 L 245,45 L 244,45 L 243,44 Z" />
</g></svg>